<?xml version="1.0" encoding="utf-8"?>
<!-- Generator: Adobe Illustrator 18.1.0, SVG Export Plug-In . SVG Version: 6.00 Build 0)  -->
<!DOCTYPE svg PUBLIC "-//W3C//DTD SVG 1.1//EN" "http://www.w3.org/Graphics/SVG/1.1/DTD/svg11.dtd">
<svg version="1.1" id="Layer_1" xmlns="http://www.w3.org/2000/svg" xmlns:xlink="http://www.w3.org/1999/xlink" x="0px" y="0px"
	 viewBox="0 0 346 224" enable-background="new 0 0 346 224" xml:space="preserve">
<g>
	<path fill="#4B4B62" d="M77.8,199.9v-28.5h5v24.1h12.6v4.4H77.8z"/>
	<path fill="#4B4B62" d="M152.2,199.9l-2.1-5.5H137l-2.1,5.5h-5.7l11.2-28.5h6.2l11.2,28.5H152.2z M143.6,176.4l-5.1,13.6h10.3
		L143.6,176.4z"/>
	<path fill="#4B4B62" d="M192.5,199.9v-28.5h14c5.3,0,8.1,3.2,8.1,7.3c0,3.5-2.3,6-5,6.5c3.1,0.5,5.5,3.5,5.5,7
		c0,4.4-2.9,7.7-8.3,7.7H192.5z M209.5,179.4c0-2.1-1.5-3.7-4-3.7h-8v7.3h8C208.1,183.1,209.5,181.6,209.5,179.4z M210.1,191.5
		c0-2.1-1.5-4-4.3-4h-8.2v7.9h8.2C208.5,195.5,210.1,194,210.1,191.5z"/>
	<path fill="#4B4B62" d="M250,195.8l2.8-3.9c1.9,2.1,5,4,9,4c4.1,0,5.7-2,5.7-3.9c0-6-16.6-2.3-16.6-12.7c0-4.7,4.1-8.4,10.4-8.4
		c4.4,0,8,1.5,10.6,4l-2.8,3.7c-2.3-2.3-5.3-3.3-8.3-3.3c-2.9,0-4.8,1.5-4.8,3.5c0,5.3,16.6,2.1,16.6,12.6c0,4.7-3.4,8.8-11,8.8
		C256.4,200.4,252.6,198.5,250,195.8z"/>
</g>
<g>
	<path fill="#4B4B62" d="M80.1,141.9V95.4l-18.4,46.4h-4.5L38.7,95.4v46.4H28.2V81.7h14.9L59.5,123l16.3-41.3h14.9v60.1H80.1z"/>
	<path fill="#4B4B62" d="M226,141.9V91h-18.2v-9.3h47V91h-18.2v50.9H226z"/>
	<path fill="#4B4B62" d="M281.1,141.9V81.7h41.2V91h-30.7v15.5h30v9.3h-30v16.8h30.7v9.3H281.1z"/>
	<g>
		<g>
			<path fill="#4B4B62" d="M157.6,72.7V50.9h-14.1v21.8c-18.7,3.3-32.9,19.7-32.9,39.3c0,22.1,17.9,39.9,39.9,39.9
				c22.1,0,39.9-17.9,39.9-39.9C190.5,92.4,176.3,76,157.6,72.7z"/>
		</g>
		<g>
			<defs>
				<path id="SVGID_1_" d="M156,81.9V64.2h-11v17.7c-14.6,2.6-25.7,15.4-25.7,30.7c0,17.2,14,31.2,31.2,31.2
					c17.2,0,31.2-14,31.2-31.2C181.7,97.3,170.6,84.5,156,81.9z"/>
			</defs>
			<clipPath id="SVGID_2_">
				<use xlink:href="#SVGID_1_"  overflow="visible"/>
			</clipPath>
			<path clip-path="url(#SVGID_2_)" fill="#66B245" d="M113.4,106.9l9.3-5c4.6-2.4,10.2-1.6,13.8,2l2,2c3.8,3.7,9.6,4.4,14.2,1.8
				l0.3-0.1c4.7-2.7,10.6-1.9,14.4,2l0,0c4,4.1,10.4,4.8,15.1,1.5l2.3-1.5l14.2,11l-2.1,36.3l-88.8-6.5L113.4,106.9z"/>
		</g>
		<g>
			<defs>
				<path id="SVGID_3_" d="M156,81.9V64.2h-11v17.7c-14.6,2.6-25.7,15.4-25.7,30.7c0,17.2,14,31.2,31.2,31.2
					c17.2,0,31.2-14,31.2-31.2C181.7,97.3,170.6,84.5,156,81.9z"/>
			</defs>
			<clipPath id="SVGID_4_">
				<use xlink:href="#SVGID_3_"  overflow="visible"/>
			</clipPath>
			<path clip-path="url(#SVGID_4_)" fill="#4A8A3F" d="M57.9,120.9l15.4-10.1c7.6-5,17.5-4.4,24.5,1.4l3.9,3.2
				c7.2,5.9,17.4,6.3,25,1l0.4-0.3c7.8-5.4,18.3-4.9,25.4,1.3l0,0c7.6,6.6,18.8,6.8,26.6,0.4l3.7-3l26.4,17l1.7,63.7l-156.3,2
				L57.9,120.9z"/>
		</g>
		<g>
			<defs>
				<path id="SVGID_5_" d="M156,81.9V64.2h-11v17.7c-14.6,2.6-25.7,15.4-25.7,30.7c0,17.2,14,31.2,31.2,31.2
					c17.2,0,31.2-14,31.2-31.2C181.7,97.3,170.6,84.5,156,81.9z"/>
			</defs>
			<clipPath id="SVGID_6_">
				<use xlink:href="#SVGID_5_"  overflow="visible"/>
			</clipPath>
			<path clip-path="url(#SVGID_6_)" fill="#C4E592" d="M192.6,143.2l-10.2-10c-5-4.9-12.6-6-18.7-2.7l-3.4,1.8
				c-6.3,3.4-14.1,2.1-19.1-3l-0.3-0.3c-5.1-5.3-13.1-6.4-19.4-2.8l0,0c-6.7,3.8-15.3,2.3-20.2-3.7l-2.4-2.9l-22.6,8.9l-11,47.9
				l117.9,25.2L192.6,143.2z"/>
		</g>
		<circle fill="#C4E592" cx="147.7" cy="92.2" r="4.6"/>
		<circle fill="#66B245" cx="151.6" cy="34.2" r="4.6"/>
		<circle fill="#66B245" cx="145.5" cy="21.5" r="2.8"/>
		<circle fill="#66B245" cx="138.4" cy="98" r="2.8"/>
		<rect x="138.4" y="50.4" fill="#4B4B62" width="24" height="8.5"/>
		<g>
			<defs>
				<circle id="SVGID_7_" cx="150.6" cy="112.6" r="31.2"/>
			</defs>
			<clipPath id="SVGID_8_">
				<use xlink:href="#SVGID_7_"  overflow="visible"/>
			</clipPath>
			<path clip-path="url(#SVGID_8_)" fill="#FFFFFF" d="M139.1,83.2c21.5-2.1,40.5,13.7,42.6,35.1c0.3,3.6,0.2,7.2-0.4,10.6
				c16.6-4.9,27.9-21,26.2-38.8c-1.9-20.2-19.9-35.1-40.2-33.1c-15.6,1.5-28,12.5-31.9,26.7C136.6,83.6,137.9,83.4,139.1,83.2z"/>
		</g>
	</g>
</g>
<g>
	<circle cx="629" cy="-65" r="16"/>
	<g>
		<circle cx="660.1" cy="-46" r="1.8"/>
		<circle cx="652.8" cy="-54.4" r="1.3"/>
		<circle cx="661.1" cy="-49.3" r="1"/>
		<circle cx="656.1" cy="-47.4" r="0.5"/>
		<circle cx="666.2" cy="-45.4" r="0.5"/>
		<circle cx="662.8" cy="-52.6" r="0.6"/>
		<circle cx="656.7" cy="-45.4" r="0.6"/>
		<circle cx="649.8" cy="-52.6" r="0.5"/>
		<circle cx="650.1" cy="-55.5" r="0.8"/>
		<circle cx="652.5" cy="-50.1" r="2.2"/>
		<circle cx="651.6" cy="-72.3" r="2.2"/>
		<circle cx="654.4" cy="-76" r="1.6"/>
		<circle cx="651" cy="-65.5" r="1.8"/>
		<circle cx="658.8" cy="-57.7" r="2"/>
		<circle cx="657.2" cy="-49.8" r="1.2"/>
		<circle cx="659.1" cy="-69.2" r="1.5"/>
		<circle cx="659.9" cy="-72.2" r="0.8"/>
		<circle cx="656.7" cy="-71.8" r="0.8"/>
		<circle cx="659.9" cy="-75" r="0.5"/>
		<circle cx="654.7" cy="-70.6" r="0.5"/>
		<circle cx="650.4" cy="-68.6" r="0.5"/>
		<circle cx="654.5" cy="-73.4" r="0.4"/>
		<circle cx="649.6" cy="-62.8" r="0.4"/>
		<circle cx="656.2" cy="-68.6" r="1.2"/>
		<circle cx="659.9" cy="-60.8" r="0.5"/>
		<circle cx="658" cy="-73.9" r="0.9"/>
		<circle cx="652.8" cy="-68.8" r="0.9"/>
		<circle cx="653.8" cy="-63.8" r="0.9"/>
		<circle cx="654.3" cy="-66.3" r="0.8"/>
		<circle cx="656.4" cy="-60.6" r="0.8"/>
		<circle cx="655.6" cy="-52.6" r="0.8"/>
		<circle cx="663.5" cy="-45" r="0.8"/>
		<circle cx="654" cy="-46.3" r="0.8"/>
		<circle cx="655.6" cy="-55.7" r="1.1"/>
		<circle cx="659.4" cy="-53" r="2.3"/>
		<circle cx="658" cy="-64.3" r="2.8"/>
		<circle cx="652.2" cy="-59.5" r="3.1"/>
		<circle cx="666.2" cy="-49.8" r="3.2"/>
		<circle cx="654.1" cy="-94.7" r="1.8"/>
		<circle cx="658.6" cy="-94.9" r="1.4"/>
		<circle cx="656.7" cy="-92.9" r="0.5"/>
		<circle cx="655.6" cy="-97.1" r="0.5"/>
		<circle cx="653.8" cy="-98.7" r="1"/>
		<circle cx="660" cy="-91.6" r="0.5"/>
		<circle cx="649.9" cy="-89.7" r="0.7"/>
		<circle cx="652" cy="-96.9" r="0.7"/>
		<circle cx="651.5" cy="-86.5" r="2.2"/>
		<circle cx="658.5" cy="-80.7" r="2.2"/>
		<circle cx="655.7" cy="-84.4" r="1.6"/>
		<circle cx="652.5" cy="-90.5" r="1.2"/>
		<circle cx="653.7" cy="-79.5" r="1.5"/>
		<circle cx="649.3" cy="-83.2" r="1.3"/>
		<circle cx="650.5" cy="-78" r="1.2"/>
		<circle cx="650.8" cy="-80.4" r="0.5"/>
		<circle cx="660.4" cy="-87.6" r="0.5"/>
		<circle cx="655.6" cy="-81.8" r="0.4"/>
		<circle cx="649.8" cy="-75.5" r="0.4"/>
		<circle cx="661.6" cy="-82" r="0.4"/>
		<circle cx="660.3" cy="-77.5" r="0.6"/>
		<circle cx="668.6" cy="-85.1" r="0.4"/>
		<circle cx="643.6" cy="-80.7" r="0.3"/>
		<circle cx="648.1" cy="-86.2" r="0.3"/>
		<circle cx="643.1" cy="-83.9" r="0.4"/>
		<circle cx="668.9" cy="-82.8" r="0.8"/>
		<circle cx="652.7" cy="-82.5" r="0.9"/>
		<circle cx="664.8" cy="-80" r="0.8"/>
		<circle cx="667.5" cy="-80.7" r="1"/>
		<circle cx="662.4" cy="-80.1" r="0.9"/>
		<circle cx="657.8" cy="-76.6" r="1.2"/>
		<circle cx="650.2" cy="-92.1" r="0.9"/>
		<circle cx="657.8" cy="-98" r="0.9"/>
		<circle cx="648.1" cy="-80.1" r="0.7"/>
		<circle cx="643.5" cy="-82.2" r="0.8"/>
		<circle cx="660" cy="-85.1" r="1.4"/>
		<circle cx="650.3" cy="-95" r="1.1"/>
		<circle cx="656.8" cy="-89.1" r="2.8"/>
		<circle cx="664.8" cy="-84.3" r="2.6"/>
		<circle cx="645.6" cy="-80.7" r="1.3"/>
		<circle cx="645.8" cy="-84.7" r="2"/>
	</g>
	<g>
		<circle cx="573.2" cy="-49.8" r="2.3"/>
		<circle cx="580.2" cy="-55.6" r="2.3"/>
		<circle cx="577.4" cy="-51.9" r="1.6"/>
		<circle cx="580.8" cy="-68.2" r="1.8"/>
		<circle cx="584.5" cy="-77.6" r="1.8"/>
		<circle cx="604.3" cy="-82.7" r="1.8"/>
		<circle cx="595.5" cy="-79" r="1.8"/>
		<circle cx="573.7" cy="-55.1" r="2.8"/>
		<circle cx="574.2" cy="-45.8" r="1.2"/>
		<circle cx="572.6" cy="-64.4" r="1.5"/>
		<circle cx="571.8" cy="-61.4" r="0.8"/>
		<circle cx="571.8" cy="-58.6" r="0.5"/>
		<circle cx="577.1" cy="-57.3" r="0.5"/>
		<circle cx="577.3" cy="-54.5" r="0.5"/>
		<circle cx="584.5" cy="-80.5" r="0.5"/>
		<circle cx="577.3" cy="-80.9" r="0.4"/>
		<circle cx="601.7" cy="-80.9" r="0.5"/>
		<circle cx="598.4" cy="-79.7" r="0.5"/>
		<circle cx="583.4" cy="-75.1" r="0.5"/>
		<circle cx="582.2" cy="-70.9" r="0.5"/>
		<circle cx="575" cy="-65.7" r="0.5"/>
		<circle cx="571.8" cy="-73" r="0.5"/>
		<circle cx="573.7" cy="-59.7" r="0.9"/>
		<circle cx="578" cy="-70" r="0.9"/>
		<circle cx="579.6" cy="-79.4" r="1.6"/>
		<circle cx="583.4" cy="-82.2" r="0.9"/>
		<circle cx="577.5" cy="-67.4" r="0.8"/>
		<circle cx="582.5" cy="-80" r="0.8"/>
		<circle cx="597.2" cy="-75.9" r="0.8"/>
		<circle cx="593.7" cy="-87" r="0.9"/>
		<circle cx="575.4" cy="-73.2" r="0.8"/>
		<circle cx="581.4" cy="-50.9" r="1.1"/>
		<circle cx="578.6" cy="-47.2" r="2.8"/>
		<circle cx="573.8" cy="-69.5" r="2.8"/>
		<circle cx="579.6" cy="-74.3" r="3.1"/>
		<circle cx="578.6" cy="-62.3" r="4"/>
		<circle cx="589.5" cy="-82.5" r="4.3"/>
		<circle cx="573" cy="-78.2" r="4"/>
		<circle cx="606.8" cy="-74.5" r="2.2"/>
		<circle cx="599.9" cy="-68.7" r="2.2"/>
		<circle cx="602.7" cy="-72.4" r="1.6"/>
		<circle cx="599.3" cy="-61.9" r="1.8"/>
		<circle cx="607.1" cy="-54.1" r="2"/>
		<circle cx="605.9" cy="-78.5" r="1.2"/>
		<circle cx="607.4" cy="-65.6" r="1.5"/>
		<circle cx="608.2" cy="-68.6" r="0.8"/>
		<circle cx="605" cy="-68.2" r="0.8"/>
		<circle cx="608.2" cy="-71.4" r="0.5"/>
		<circle cx="603" cy="-67" r="0.5"/>
		<circle cx="598.7" cy="-65" r="0.5"/>
		<circle cx="602.8" cy="-69.8" r="0.4"/>
		<circle cx="597.9" cy="-59.2" r="0.4"/>
		<circle cx="598.7" cy="-46.5" r="0.4"/>
		<circle cx="604.5" cy="-65" r="1.2"/>
		<circle cx="608.2" cy="-57.2" r="0.5"/>
		<circle cx="606.3" cy="-70.3" r="0.9"/>
		<circle cx="601.1" cy="-65.2" r="0.9"/>
		<circle cx="602.1" cy="-60.2" r="0.9"/>
		<circle cx="602.6" cy="-62.7" r="0.8"/>
		<circle cx="598.4" cy="-48.8" r="0.8"/>
		<circle cx="604.7" cy="-57" r="0.8"/>
		<circle cx="603.9" cy="-52.6" r="0.8"/>
		<circle cx="598.7" cy="-51.4" r="1.2"/>
		<circle cx="607.9" cy="-50.6" r="1.1"/>
		<circle cx="608.1" cy="-47.8" r="0.8"/>
		<circle cx="598.7" cy="-73.4" r="1.1"/>
		<circle cx="601.5" cy="-77.1" r="2.8"/>
		<circle cx="606.3" cy="-60.7" r="2.8"/>
		<circle cx="600.5" cy="-55.9" r="3.1"/>
		<circle cx="598.4" cy="-84.1" r="3.3"/>
		<circle cx="603.2" cy="-47.8" r="3.7"/>
		<circle cx="549.4" cy="-82.7" r="1.8"/>
		<circle cx="558.1" cy="-79" r="1.8"/>
		<circle cx="553.9" cy="-82.9" r="1.4"/>
		<circle cx="561.6" cy="-83.3" r="2.3"/>
		<circle cx="551.9" cy="-80.9" r="0.5"/>
		<circle cx="550.9" cy="-85.1" r="0.5"/>
		<circle cx="549.1" cy="-86.7" r="1"/>
		<circle cx="555.3" cy="-79.7" r="0.5"/>
		<circle cx="571.5" cy="-86.9" r="0.9"/>
		<circle cx="562.7" cy="-80" r="0.5"/>
		<circle cx="572" cy="-83.1" r="0.5"/>
		<circle cx="564.4" cy="-79" r="0.7"/>
		<circle cx="564.3" cy="-86.1" r="0.9"/>
		<circle cx="557.9" cy="-82.1" r="0.7"/>
		<circle cx="557.8" cy="-76" r="0.8"/>
		<circle cx="545.2" cy="-77.7" r="0.7"/>
		<circle cx="547.3" cy="-84.9" r="0.7"/>
		<circle cx="561.2" cy="-78.5" r="0.8"/>
		<circle cx="564.9" cy="-81.4" r="0.8"/>
		<circle cx="546.8" cy="-74.5" r="2.2"/>
		<circle cx="553.8" cy="-68.7" r="2.2"/>
		<circle cx="551" cy="-72.4" r="1.6"/>
		<circle cx="567.2" cy="-79.4" r="1.4"/>
		<circle cx="577.5" cy="-83.3" r="1.4"/>
		<circle cx="574.4" cy="-85.1" r="1.7"/>
		<circle cx="554.3" cy="-61.9" r="1.8"/>
		<circle cx="546.5" cy="-54.1" r="2"/>
		<circle cx="547.8" cy="-78.5" r="1.2"/>
		<circle cx="546.2" cy="-65.6" r="1.5"/>
		<circle cx="545.4" cy="-68.6" r="0.8"/>
		<circle cx="549.7" cy="-67.9" r="1.2"/>
		<circle cx="545.4" cy="-71.4" r="0.5"/>
		<circle cx="555.7" cy="-75.6" r="0.5"/>
		<circle cx="555" cy="-65" r="0.5"/>
		<circle cx="550.9" cy="-69.8" r="0.4"/>
		<circle cx="555.7" cy="-59.2" r="0.4"/>
		<circle cx="553.7" cy="-45.4" r="0.4"/>
		<circle cx="552.1" cy="-51.7" r="0.4"/>
		<circle cx="551.5" cy="-47.5" r="0.4"/>
		<circle cx="549.2" cy="-44.7" r="0.6"/>
		<circle cx="549.4" cy="-64.9" r="1.2"/>
		<circle cx="545.4" cy="-57.2" r="0.5"/>
		<circle cx="547.3" cy="-70.3" r="0.9"/>
		<circle cx="552.6" cy="-65.2" r="0.9"/>
		<circle cx="551.5" cy="-60.1" r="0.9"/>
		<circle cx="551.1" cy="-62.7" r="0.8"/>
		<circle cx="545.4" cy="-80.1" r="0.9"/>
		<circle cx="553.1" cy="-86" r="0.9"/>
		<circle cx="554.6" cy="-51.4" r="1.1"/>
		<circle cx="548.9" cy="-56.9" r="0.8"/>
		<circle cx="549.7" cy="-52.6" r="0.8"/>
		<circle cx="551.7" cy="-50" r="0.7"/>
		<circle cx="551.4" cy="-45.4" r="1.2"/>
		<circle cx="555.3" cy="-73.1" r="1.4"/>
		<circle cx="545.6" cy="-83" r="1.1"/>
		<circle cx="552.1" cy="-77.1" r="2.8"/>
		<circle cx="568.2" cy="-84.1" r="2.8"/>
		<circle cx="547.3" cy="-60.7" r="2.8"/>
		<circle cx="553.1" cy="-55.9" r="3.1"/>
		<circle cx="554.1" cy="-48" r="1.7"/>
		<circle cx="547.6" cy="-48.6" r="3"/>
	</g>
	<g>
		<circle cx="675.8" cy="-56" r="1.5"/>
		<circle cx="682.2" cy="-61.1" r="2.2"/>
		<circle cx="679.3" cy="-57.4" r="1.4"/>
		<circle cx="713.3" cy="-66" r="1.7"/>
		<circle cx="685.4" cy="-54.9" r="1.8"/>
		<circle cx="707.8" cy="-49.2" r="1.8"/>
		<circle cx="682.7" cy="-78.5" r="1.3"/>
		<circle cx="690" cy="-80.1" r="1.3"/>
		<circle cx="675.7" cy="-60.7" r="2.7"/>
		<circle cx="676.5" cy="-53.3" r="0.6"/>
		<circle cx="674.5" cy="-69.9" r="1.5"/>
		<circle cx="673.7" cy="-66.9" r="0.8"/>
		<circle cx="673.7" cy="-64.1" r="0.5"/>
		<circle cx="679" cy="-62.8" r="0.5"/>
		<circle cx="679.2" cy="-60" r="0.5"/>
		<circle cx="702.3" cy="-54.5" r="0.5"/>
		<circle cx="689.6" cy="-45" r="0.5"/>
		<circle cx="696.8" cy="-50.5" r="0.5"/>
		<circle cx="710" cy="-75.3" r="0.4"/>
		<circle cx="685.7" cy="-76.2" r="0.4"/>
		<circle cx="687.7" cy="-79.8" r="0.4"/>
		<circle cx="709.6" cy="-81.7" r="0.4"/>
		<circle cx="688.2" cy="-54.5" r="0.5"/>
		<circle cx="715.1" cy="-68.3" r="0.4"/>
		<circle cx="714" cy="-75.1" r="0.4"/>
		<circle cx="676.8" cy="-71.2" r="0.5"/>
		<circle cx="679.7" cy="-76.9" r="0.5"/>
		<circle cx="705" cy="-71.9" r="0.5"/>
		<circle cx="675.6" cy="-65.2" r="0.9"/>
		<circle cx="710" cy="-67.7" r="0.9"/>
		<circle cx="711.9" cy="-76.8" r="1.5"/>
		<circle cx="684.8" cy="-58.4" r="0.6"/>
		<circle cx="709.5" cy="-64.7" r="0.7"/>
		<circle cx="688.6" cy="-86.3" r="0.9"/>
		<circle cx="707.8" cy="-71.4" r="1.2"/>
		<circle cx="682.4" cy="-57.1" r="1"/>
		<circle cx="690" cy="-53" r="1"/>
		<circle cx="680.5" cy="-52.6" r="2.8"/>
		<circle cx="705.1" cy="-67" r="3.2"/>
		<circle cx="712.4" cy="-71.5" r="3"/>
		<circle cx="680.5" cy="-67.1" r="3.6"/>
		<circle cx="686.8" cy="-48.9" r="3.4"/>
		<circle cx="706.1" cy="-76.2" r="3.3"/>
		<circle cx="701.6" cy="-47.4" r="2.2"/>
		<circle cx="710.9" cy="-50.1" r="0.4"/>
		<circle cx="704.6" cy="-49.6" r="0.4"/>
		<circle cx="680.9" cy="-82.5" r="0.9"/>
		<circle cx="693.6" cy="-44.8" r="0.8"/>
		<circle cx="707" cy="-58" r="0.8"/>
		<circle cx="695.1" cy="-47.4" r="1.1"/>
		<circle cx="691.8" cy="-47" r="1.1"/>
		<circle cx="698.9" cy="-50.5" r="1.1"/>
		<circle cx="697.5" cy="-45.5" r="1.3"/>
		<circle cx="702.3" cy="-51.7" r="1.4"/>
		<circle cx="705.5" cy="-52.1" r="1.1"/>
		<circle cx="681.8" cy="-48.4" r="0.8"/>
		<circle cx="697.6" cy="-48.3" r="0.8"/>
		<circle cx="699.3" cy="-53" r="0.8"/>
		<circle cx="696.4" cy="-52.6" r="0.8"/>
		<circle cx="705.4" cy="-46.9" r="0.8"/>
		<circle cx="693.2" cy="-51" r="2.3"/>
		<circle cx="682.7" cy="-73.9" r="2.8"/>
		<circle cx="685.4" cy="-83" r="3.1"/>
		<circle cx="710" cy="-54.5" r="3.2"/>
		<circle cx="704.6" cy="-55.6" r="1.3"/>
		<circle cx="703.7" cy="-83.6" r="1.1"/>
		<circle cx="691.3" cy="-85.1" r="1.1"/>
		<circle cx="704.6" cy="-80.4" r="0.4"/>
		<circle cx="701.1" cy="-80.1" r="2.2"/>
		<circle cx="694.8" cy="-86.1" r="1.6"/>
		<circle cx="710.2" cy="-79.6" r="1.3"/>
		<circle cx="707" cy="-82.3" r="1.7"/>
		<circle cx="689.6" cy="-83.1" r="0.5"/>
		<circle cx="688.2" cy="-78.3" r="0.5"/>
		<circle cx="685.7" cy="-78.4" r="0.9"/>
		<circle cx="699.7" cy="-85.1" r="2.2"/>
		<circle cx="678.7" cy="-79.7" r="1.6"/>
		<circle cx="676.5" cy="-76" r="1.8"/>
		<circle cx="686.7" cy="-68.5" r="2"/>
		<circle cx="698.2" cy="-68.9" r="1.5"/>
		<circle cx="701.2" cy="-69.6" r="0.8"/>
		<circle cx="700.4" cy="-66.8" r="0.9"/>
		<circle cx="697.3" cy="-79.9" r="0.5"/>
		<circle cx="700.5" cy="-64.4" r="0.5"/>
		<circle cx="695.5" cy="-64.3" r="0.4"/>
		<circle cx="689.6" cy="-66.5" r="0.4"/>
		<circle cx="697.5" cy="-65.7" r="1.2"/>
		<circle cx="689.8" cy="-69.6" r="0.5"/>
		<circle cx="702.9" cy="-67.8" r="0.9"/>
		<circle cx="678.3" cy="-73" r="0.9"/>
		<circle cx="674.4" cy="-73" r="0.9"/>
		<circle cx="688" cy="-65" r="1.2"/>
		<circle cx="698.1" cy="-81.9" r="0.8"/>
		<circle cx="690.9" cy="-64.3" r="0.6"/>
		<circle cx="685.2" cy="-65.3" r="0.8"/>
		<circle cx="693.2" cy="-67.7" r="2.8"/>
		<circle cx="693.7" cy="-81.9" r="2.2"/>
	</g>
</g>
</svg>
